HIERARCHY
ROOT Hips
{
    OFFSET 0.000000 0.000000 0.000000
    CHANNELS 6 Xposition Yposition Zposition Zrotation Xrotation Yrotation
    JOINT Spine
    {
        OFFSET -0.000000 0.070388 0.000000
        CHANNELS 3 Zrotation Xrotation Yrotation
        JOINT Spine1
        {
            OFFSET -0.000000 0.188704 0.000000
            CHANNELS 3 Zrotation Xrotation Yrotation
            JOINT Neck
            {
                OFFSET -0.000000 0.205872 0.000000
                CHANNELS 3 Zrotation Xrotation Yrotation
                JOINT Head
                {
                    OFFSET -0.000000 0.093136 0.017168
                    CHANNELS 3 Zrotation Xrotation Yrotation
                    End Site
                    {
                        OFFSET -0.000000 0.171679 0.000000
                    }
                }
            }
            JOINT LeftShoulder
            {
                OFFSET 0.034319 0.171129 0.000640
                CHANNELS 3 Zrotation Xrotation Yrotation
                JOINT LeftArm
                {
                    OFFSET 0.104933 0.000000 0.000000
                    CHANNELS 3 Zrotation Xrotation Yrotation
                    JOINT LeftForeArm
                    {
                        OFFSET 0.282381 0.000000 0.000000
                        CHANNELS 3 Zrotation Xrotation Yrotation
                        JOINT LeftHand
                        {
                            OFFSET 0.191019 0.000000 0.000000
                            CHANNELS 3 Zrotation Xrotation Yrotation
                            End Site
                            {
                                OFFSET 0.000000 -0.128759 0.000000
                            }
                        }
                    }
                }
            }
            JOINT RightShoulder
            {
                OFFSET -0.034352 0.171129 0.000640
                CHANNELS 3 Zrotation Xrotation Yrotation
                JOINT RightArm
                {
                    OFFSET -0.104933 0.000000 0.000000
                    CHANNELS 3 Zrotation Xrotation Yrotation
                    JOINT RightForeArm
                    {
                        OFFSET -0.282381 0.000000 0.000000
                        CHANNELS 3 Zrotation Xrotation Yrotation
                        JOINT RightHand
                        {
                            OFFSET -0.191019 0.000000 0.000000
                            CHANNELS 3 Zrotation Xrotation Yrotation
                            End Site
                            {
                                OFFSET -0.000000 -0.128759 0.000000
                            }
                        }
                    }
                }
            }
        }
    }
    JOINT LeftUpLeg
    {
        OFFSET 0.085839 0.000000 0.000000
        CHANNELS 3 Zrotation Xrotation Yrotation
        JOINT LeftLeg
        {
            OFFSET -0.000000 -0.365643 0.000000
            CHANNELS 3 Zrotation Xrotation Yrotation
            JOINT LeftFoot
            {
                OFFSET -0.000000 -0.393614 0.000000
                CHANNELS 3 Zrotation Xrotation Yrotation
                JOINT LeftToeBase
                {
                    OFFSET -0.000000 -0.055796 0.128759
                    CHANNELS 3 Zrotation Xrotation Yrotation
                    End Site
                    {
                        OFFSET -0.000000 0.000000 0.034336
                    }
                }
            }
        }
    }
    JOINT RightUpLeg
    {
        OFFSET -0.085839 0.000000 0.000000
        CHANNELS 3 Zrotation Xrotation Yrotation
        JOINT RightLeg
        {
            OFFSET -0.000000 -0.365643 0.000000
            CHANNELS 3 Zrotation Xrotation Yrotation
            JOINT RightFoot
            {
                OFFSET -0.000000 -0.393614 0.000000
                CHANNELS 3 Zrotation Xrotation Yrotation
                JOINT RightToeBase
                {
                    OFFSET -0.000000 -0.055796 0.128759
                    CHANNELS 3 Zrotation Xrotation Yrotation
                    End Site
                    {
                        OFFSET -0.000000 0.000000 0.034336
                    }
                }
            }
        }
    }
}
MOTION
Frames:    7
Frame Time:    0.010000
-0.011070    0.825970    -0.462161    -5.542068    0.416229    94.751320    -1.797405    -4.967125    -2.055903    -0.984079    2.081069    -0.640549    -3.565551    -1.815667    -2.896964    0.973451    -1.389822    -3.525297    15.257372    -1.056147    1.136968    -20.519007    -3.079155    2.529126    3.917301    -2.863943    -10.009799    91.272644    -0.901666    2.531153    -14.394009    3.299174    -1.349671    23.473562    -3.740641    -7.345903    0.702339    12.090676    5.818261    -90.285454    -0.624453    12.054274    3.650079    0.525791    0.625549    -0.331813    -1.740941    -1.058236    -3.975004    -3.017262    19.101467    0.000000    0.000000    0.000000    -2.125093    0.437566    -0.776261    -0.215222    0.332418    -0.770534    1.416896    -5.136053    -22.843452    0.000000    0.000000    0.000000    
-0.011061    0.825960    -0.462153    -5.545906    0.423474    94.749313    -1.802860    -4.955835    -2.051907    -0.980737    2.054987    -0.639451    -3.561955    -1.884142    -2.832935    0.950374    -1.402532    -3.453747    15.255919    -1.083618    1.097720    -20.488556    -2.999954    2.464309    3.928492    -2.853339    -10.051642    91.248108    -0.918063    2.518136    -14.416420    3.134156    -1.269737    23.442997    -3.600456    -7.411984    0.721287    12.067561    5.817697    -90.319405    -0.639634    12.029981    3.642612    0.521995    0.616831    -0.327499    -1.735824    -1.052787    -4.113021    -3.094756    19.072174    0.000000    0.000000    0.000000    -2.131720    0.432783    -0.782120    -0.213786    0.330881    -0.782720    1.407564    -5.120611    -22.831974    0.000000    0.000000    0.000000    
-0.011055    0.825975    -0.462125    -5.552802    0.418664    94.738708    -1.802539    -4.944149    -2.049919    -0.966098    2.020326    -0.639426    -3.571642    -1.935207    -2.770076    0.939923    -1.410710    -3.387018    15.241348    -1.111776    1.064695    -20.461349    -2.907377    2.399471    3.939418    -2.887494    -10.075847    91.277603    -0.945794    2.551016    -14.443163    3.071248    -1.215048    23.432489    -3.540429    -7.379812    0.711339    12.043203    5.775454    -90.304070    -0.643421    12.006442    3.649584    0.518097    0.615124    -0.329337    -1.737895    -1.043313    -4.093892    -3.096032    19.070690    0.000000    0.000000    0.000000    -2.125649    0.426699    -0.775975    -0.214028    0.327951    -0.784904    1.426654    -5.132881    -22.827076    0.000000    0.000000    0.000000    
-0.011034    0.825970    -0.462110    -5.554774    0.418440    94.735840    -1.800200    -4.933845    -2.055204    -0.964190    2.000017    -0.641538    -3.583506    -2.015213    -2.707188    0.940529    -1.368669    -3.321298    15.235458    -1.135242    1.041464    -20.451641    -2.795365    2.322073    3.989865    -2.899771    -10.056930    91.194244    -0.993248    2.559303    -14.461759    3.016243    -1.179642    23.423603    -3.497467    -7.320371    0.709868    12.035935    5.729443    -90.272491    -0.649349    11.999688    3.650028    0.515726    0.616394    -0.328618    -1.734087    -1.042457    -4.112407    -3.101021    19.078691    0.000000    0.000000    0.000000    -2.125873    0.427428    -0.774221    -0.212048    0.322712    -0.789295    1.425252    -5.120870    -22.814554    0.000000    0.000000    0.000000    
-0.011009    0.825976    -0.462081    -5.555827    0.418675    94.732788    -1.803116    -4.921122    -2.061452    -0.958359    1.977478    -0.643906    -3.589321    -2.075883    -2.656631    0.941033    -1.345093    -3.268042    15.230783    -1.160525    1.018980    -20.432333    -2.742350    2.266781    4.000349    -2.895897    -10.101630    91.192749    -0.997228    2.552948    -14.479293    2.969280    -1.141502    23.418110    -3.466615    -7.268312    0.700615    12.011454    5.708033    -90.272095    -0.645127    11.975795    3.650540    0.522148    0.610257    -0.325007    -1.744127    -1.049376    -4.095209    -3.086943    19.086618    0.000000    0.000000    0.000000    -2.128100    0.431211    -0.766738    -0.204205    0.316041    -0.791052    1.424431    -5.122521    -22.824347    0.000000    0.000000    0.000000    
-0.010995    0.825988    -0.462054    -5.562623    0.413967    94.726051    -1.796464    -4.914974    -2.065253    -0.961399    1.958774    -0.645389    -3.590023    -2.140781    -2.614202    0.938750    -1.304874    -3.222267    15.228002    -1.182779    0.991967    -20.409950    -2.697849    2.215380    3.992155    -2.892849    -10.121464    91.197220    -0.987167    2.549886    -14.488893    2.930249    -1.102081    23.389709    -3.491146    -7.244801    0.720730    12.030580    5.746487    -90.371231    -0.709935    11.992930    3.655807    0.519427    0.609854    -0.322854    -1.748575    -1.038574    -4.116276    -3.094951    19.085800    0.000000    0.000000    0.000000    -2.124615    0.423064    -0.758318    -0.199579    0.318299    -0.789353    1.421225    -5.123415    -22.825470    0.000000    0.000000    0.000000    
-0.010958    0.825969    -0.462032    -5.561559    0.416360    94.725449    -1.796766    -4.909251    -2.072044    -0.965770    1.954647    -0.647670    -3.589520    -2.210742    -2.578958    0.936669    -1.255806    -3.183684    15.222538    -1.209746    0.969306    -20.384682    -2.670999    2.163823    3.976517    -2.871346    -10.146935    91.212158    -0.980322    2.528935    -14.500739    2.880932    -1.076109    23.360275    -3.524342    -7.227280    0.753290    12.070271    5.816619    -90.364525    -0.689941    12.030683    3.653526    0.528128    0.609974    -0.321633    -1.757504    -1.023862    -4.215975    -3.099146    19.096634    0.000000    0.000000    0.000000    -2.126050    0.425405    -0.765366    -0.198685    0.316630    -0.796791    1.429336    -5.125082    -22.817173    0.000000    0.000000    0.000000    
